<svg id="canvas" width="1012.957" height="202.872" viewBox="190.137 219.800 1012.957 202.872" preserveAspectRatio="xMidYMid meet" class="h-full w-full max-w-4xl text-primary transition-opacity duration-300 opacity-100" xmlns="http://www.w3.org/2000/svg"><g id="canvas-strokes"><path d="M 199.23,235.25 C 198.70 236.83, 198.58 238.84, 198.17 243.30 C 197.76 247.77, 197.67 250.76, 197.18 257.57 C 196.69 264.39, 196.28 268.73, 195.72 277.38 C 195.15 286.04, 194.82 291.14, 194.35 300.86 C 193.87 310.57, 193.56 315.93, 193.34 325.97 C 193.13 336.00, 193.05 341.47, 193.26 351.03 C 193.47 360.59, 193.76 365.66, 194.39 373.75 C 195.02 381.85, 195.65 385.80, 196.39 391.50 C 197.13 397.20, 197.34 399.14, 198.09 402.26 C 198.85 405.38, 199.58 406.20, 200.17 407.11 C 200.76 408.03, 201.07 407.89, 201.04 406.84 C 201.02 405.78, 200.62 404.96, 200.03 401.84 C 199.45 398.73, 198.95 396.90, 198.10 391.26 C 197.25 385.62, 196.49 381.69, 195.77 373.64 C 195.05 365.59, 194.73 360.53, 194.49 351.00 C 194.24 341.47, 194.32 336.01, 194.55 325.99 C 194.78 315.98, 195.11 310.62, 195.65 300.93 C 196.19 291.23, 196.57 286.13, 197.26 277.49 C 197.94 268.86, 198.45 264.53, 199.08 257.73 C 199.70 250.93, 200.04 247.96, 200.39 243.49 C 200.74 239.02, 201.05 237.04, 200.82 235.39 C 200.59 233.74, 199.76 233.66, 199.23 235.25" style="stroke: black; fill: black;"/><path d="M 236.74,241.51 C 235.95 242.87, 235.55 244.86, 234.40 248.70 C 233.26 252.55, 232.82 255.01, 231.02 260.75 C 229.22 266.49, 227.93 270.34, 225.41 277.40 C 222.90 284.47, 221.22 288.76, 218.45 296.08 C 215.68 303.40, 213.84 307.34, 211.57 314.00 C 209.30 320.65, 208.24 323.81, 207.09 329.34 C 205.95 334.86, 205.40 337.49, 205.84 341.63 C 206.27 345.78, 206.84 347.72, 209.28 350.07 C 211.72 352.43, 213.69 352.69, 218.03 353.41 C 222.37 354.13, 225.15 354.10, 230.98 353.67 C 236.81 353.23, 240.39 352.50, 247.16 351.24 C 253.93 349.97, 257.70 348.72, 264.84 347.33 C 271.97 345.94, 275.79 345.36, 282.84 344.29 C 289.89 343.22, 293.46 342.90, 300.09 341.97 C 306.73 341.05, 309.95 340.71, 316.01 339.68 C 322.07 338.65, 325.04 338.11, 330.39 336.83 C 335.74 335.55, 338.51 335.02, 342.76 333.27 C 347.01 331.52, 348.85 330.37, 351.64 328.09 C 354.42 325.81, 355.69 324.53, 356.69 321.89 C 357.69 319.25, 357.75 317.61, 356.63 314.90 C 355.51 312.18, 354.12 310.45, 351.08 308.31 C 348.05 306.17, 345.84 305.03, 341.46 304.21 C 337.09 303.39, 334.05 303.51, 329.21 304.21 C 324.37 304.91, 321.59 305.66, 317.26 307.71 C 312.93 309.77, 310.66 311.28, 307.56 314.46 C 304.46 317.65, 302.84 319.83, 301.77 323.65 C 300.70 327.48, 300.72 329.73, 302.20 333.60 C 303.68 337.47, 305.39 339.64, 309.17 343.01 C 312.95 346.39, 315.76 348.08, 321.10 350.48 C 326.45 352.88, 329.71 353.81, 335.91 355.01 C 342.10 356.21, 345.63 356.51, 352.09 356.49 C 358.56 356.47, 362.47 355.91, 368.25 354.92 C 374.02 353.92, 376.83 352.95, 380.97 351.50 C 385.11 350.05, 387.46 348.69, 388.94 347.67 C 390.42 346.64, 390.11 346.02, 388.38 346.39 C 386.66 346.76, 384.41 348.22, 380.31 349.53 C 376.21 350.83, 373.54 351.90, 367.89 352.92 C 362.25 353.93, 358.41 354.56, 352.09 354.60 C 345.76 354.63, 342.30 354.32, 336.28 353.10 C 330.26 351.89, 327.10 350.89, 322.00 348.52 C 316.89 346.15, 314.24 344.42, 310.75 341.26 C 307.26 338.09, 305.86 336.07, 304.56 332.70 C 303.27 329.32, 303.30 327.66, 304.27 324.37 C 305.24 321.09, 306.59 319.13, 309.40 316.26 C 312.22 313.39, 314.31 311.90, 318.34 310.01 C 322.38 308.13, 325.06 307.42, 329.57 306.85 C 334.08 306.27, 336.96 306.30, 340.88 307.13 C 344.80 307.96, 346.61 309.20, 349.18 311.01 C 351.75 312.83, 352.76 314.22, 353.73 316.19 C 354.71 318.16, 354.82 318.92, 354.04 320.87 C 353.27 322.82, 352.29 323.89, 349.86 325.94 C 347.42 328.00, 345.83 329.35, 341.84 331.14 C 337.85 332.93, 335.14 333.55, 329.91 334.90 C 324.68 336.26, 321.72 336.85, 315.71 337.93 C 309.70 339.02, 306.48 339.38, 299.86 340.33 C 293.24 341.28, 289.66 341.61, 282.59 342.67 C 275.52 343.74, 271.67 344.32, 264.52 345.66 C 257.36 347.00, 253.56 348.20, 246.82 349.37 C 240.09 350.53, 236.52 351.15, 230.83 351.48 C 225.15 351.81, 222.40 351.65, 218.42 351.02 C 214.44 350.38, 213.03 350.23, 210.95 348.30 C 208.87 346.38, 208.42 345.12, 208.02 341.40 C 207.61 337.68, 207.90 335.07, 208.92 329.70 C 209.95 324.33, 210.93 321.13, 213.14 314.53 C 215.35 307.92, 217.19 303.97, 219.99 296.67 C 222.79 289.37, 224.51 285.08, 227.13 278.03 C 229.74 270.98, 231.14 267.14, 233.07 261.41 C 235.00 255.68, 235.74 253.28, 236.79 249.38 C 237.84 245.48, 238.34 243.51, 238.33 241.93 C 238.32 240.36, 237.53 240.16, 236.74 241.51" style="stroke: black; fill: black;"/><path d="M 410.18,307.95 C 409.46 307.39, 408.34 306.91, 406.67 306.92 C 405.00 306.94, 403.46 307.07, 401.84 308.02 C 400.22 308.96, 399.09 309.86, 398.58 311.65 C 398.07 313.44, 397.89 314.65, 399.30 316.98 C 400.71 319.31, 402.15 320.38, 405.62 323.31 C 409.10 326.23, 411.94 328.15, 416.68 331.58 C 421.42 335.02, 424.66 337.17, 429.32 340.50 C 433.97 343.83, 436.56 345.40, 439.95 348.24 C 443.34 351.07, 444.74 352.75, 446.26 354.66 C 447.77 356.58, 448.18 356.97, 447.51 357.82 C 446.84 358.67, 445.78 358.48, 442.92 358.93 C 440.05 359.37, 437.75 359.80, 433.17 360.03 C 428.59 360.27, 425.41 360.30, 420.01 360.12 C 414.61 359.95, 411.18 359.69, 406.16 359.17 C 401.14 358.65, 398.47 357.96, 394.91 357.50 C 391.34 357.04, 389.70 356.76, 388.34 356.87 C 386.99 356.99, 386.88 357.48, 388.11 358.09 C 389.34 358.71, 390.94 359.23, 394.50 359.95 C 398.06 360.67, 400.81 361.14, 405.89 361.69 C 410.97 362.24, 414.43 362.45, 419.91 362.71 C 425.39 362.97, 428.54 363.11, 433.28 363.00 C 438.02 362.88, 440.44 362.98, 443.60 362.14 C 446.76 361.30, 448.08 360.60, 449.07 358.79 C 450.06 356.98, 450.07 355.58, 448.56 353.09 C 447.05 350.59, 445.11 349.21, 441.53 346.31 C 437.96 343.41, 435.34 341.96, 430.68 338.61 C 426.01 335.25, 422.81 333.06, 418.21 329.54 C 413.61 326.01, 410.86 323.88, 407.67 320.97 C 404.48 318.06, 403.57 316.69, 402.26 314.99 C 400.95 313.28, 400.89 313.07, 401.13 312.44 C 401.37 311.82, 402.25 312.14, 403.48 311.88 C 404.71 311.62, 405.92 311.56, 407.29 311.13 C 408.65 310.70, 409.70 310.38, 410.28 309.74 C 410.86 309.10, 410.90 308.51, 410.18 307.95" style="stroke: black; fill: black;"/><path d="M 508.44,327.04 C 509.72 326.32, 511.68 324.62, 513.24 322.24 C 514.80 319.86, 515.81 318.20, 516.22 315.15 C 516.63 312.10, 516.73 309.72, 515.28 307.01 C 513.82 304.31, 512.28 303.01, 508.94 301.62 C 505.60 300.23, 503.13 299.99, 498.57 300.07 C 494.01 300.15, 491.11 300.44, 486.14 302.03 C 481.17 303.62, 478.23 305.07, 473.71 308.02 C 469.18 310.97, 466.74 313.16, 463.52 316.77 C 460.29 320.37, 458.85 322.45, 457.58 326.05 C 456.31 329.64, 456.24 331.68, 457.16 334.73 C 458.09 337.79, 459.50 339.47, 462.21 341.34 C 464.92 343.20, 466.99 343.65, 470.70 344.08 C 474.40 344.51, 476.58 344.17, 480.73 343.49 C 484.87 342.82, 487.41 342.36, 491.40 340.70 C 495.39 339.04, 497.34 337.63, 500.68 335.19 C 504.02 332.75, 505.82 331.08, 508.12 328.51 C 510.41 325.95, 511.01 324.13, 512.17 322.36 C 513.33 320.59, 513.38 319.85, 513.92 319.65 C 514.47 319.46, 514.09 319.85, 514.88 321.38 C 515.66 322.92, 516.25 324.62, 517.86 327.32 C 519.47 330.01, 520.86 332.08, 522.94 334.85 C 525.02 337.62, 526.12 339.03, 528.25 341.17 C 530.39 343.31, 531.44 344.36, 533.62 345.54 C 535.79 346.72, 537.17 347.13, 539.15 347.06 C 541.13 346.99, 541.96 346.50, 543.52 345.19 C 545.08 343.87, 545.70 342.88, 546.96 340.47 C 548.21 338.07, 548.91 336.10, 549.81 333.16 C 550.72 330.22, 550.73 328.03, 551.47 325.76 C 552.21 323.49, 552.24 322.42, 553.50 321.80 C 554.76 321.19, 555.71 321.73, 557.78 322.69 C 559.85 323.65, 561.21 324.83, 563.85 326.62 C 566.50 328.40, 568.13 329.66, 571.00 331.63 C 573.88 333.61, 575.53 334.78, 578.23 336.49 C 580.94 338.21, 582.10 339.18, 584.52 340.22 C 586.95 341.25, 589.08 341.68, 590.37 341.67 C 591.66 341.66, 591.84 341.07, 590.99 340.18 C 590.13 339.28, 588.25 338.55, 586.10 337.20 C 583.96 335.84, 582.84 335.12, 580.24 333.40 C 577.65 331.67, 575.97 330.58, 573.13 328.58 C 570.28 326.58, 568.83 325.25, 566.01 323.39 C 563.20 321.52, 561.79 320.11, 559.06 319.28 C 556.32 318.44, 554.62 318.25, 552.34 319.20 C 550.07 320.16, 549.09 321.56, 547.69 324.06 C 546.28 326.57, 546.26 328.81, 545.31 331.74 C 544.36 334.66, 543.72 336.43, 542.92 338.70 C 542.13 340.97, 542.08 341.99, 541.33 343.10 C 540.58 344.21, 540.35 344.36, 539.18 344.25 C 538.00 344.14, 537.06 343.74, 535.46 342.57 C 533.86 341.40, 532.97 340.46, 531.16 338.42 C 529.35 336.38, 528.27 335.09, 526.39 332.36 C 524.50 329.64, 523.55 327.41, 521.74 324.81 C 519.93 322.20, 518.96 320.72, 517.33 319.35 C 515.70 317.97, 515.14 317.74, 513.60 317.94 C 512.06 318.13, 511.23 318.65, 509.63 320.32 C 508.03 322.00, 507.74 323.80, 505.60 326.31 C 503.45 328.81, 501.98 330.49, 498.92 332.83 C 495.86 335.18, 494.03 336.50, 490.30 338.03 C 486.57 339.56, 484.11 339.92, 480.26 340.49 C 476.41 341.06, 474.32 341.24, 471.06 340.88 C 467.81 340.51, 466.21 340.05, 464.01 338.64 C 461.80 337.23, 460.80 336.17, 460.02 333.83 C 459.25 331.49, 459.05 330.02, 460.12 326.94 C 461.19 323.85, 462.38 321.79, 465.36 318.40 C 468.34 315.02, 470.69 312.80, 475.00 310.01 C 479.31 307.22, 482.17 305.86, 486.89 304.43 C 491.61 303.01, 494.42 302.85, 498.58 302.89 C 502.74 302.93, 504.98 303.48, 507.69 304.62 C 510.40 305.76, 511.23 306.62, 512.15 308.60 C 513.06 310.57, 512.74 312.16, 512.26 314.50 C 511.79 316.84, 510.86 318.01, 509.78 320.29 C 508.70 322.56, 507.14 324.53, 506.87 325.88 C 506.61 327.23, 507.17 327.77, 508.44 327.04" style="stroke: black; fill: black;"/><path d="M 641.65,323.86 C 640.98 323.02, 639.89 322.13, 637.69 321.23 C 635.49 320.33, 633.76 319.57, 630.64 319.37 C 627.51 319.18, 625.35 319.55, 622.06 320.25 C 618.78 320.95, 616.72 321.60, 614.20 322.87 C 611.67 324.14, 610.58 325.16, 609.43 326.59 C 608.28 328.01, 608.02 329.19, 608.46 330.01 C 608.89 330.82, 609.80 331.05, 611.59 330.67 C 613.37 330.29, 614.68 329.54, 617.37 328.11 C 620.06 326.68, 621.87 325.35, 625.03 323.53 C 628.18 321.71, 630.02 320.26, 633.14 319.03 C 636.25 317.80, 637.71 317.24, 640.60 317.39 C 643.48 317.55, 644.89 318.03, 647.54 319.80 C 650.20 321.58, 651.35 322.73, 653.85 326.27 C 656.34 329.80, 657.79 332.23, 660.02 337.47 C 662.25 342.72, 663.60 346.31, 665.00 352.49 C 666.41 358.66, 666.83 362.13, 667.04 368.36 C 667.25 374.60, 667.13 377.89, 666.04 383.66 C 664.95 389.42, 664.01 392.31, 661.59 397.20 C 659.17 402.08, 657.48 404.52, 653.94 408.07 C 650.39 411.61, 648.08 413.13, 643.87 414.94 C 639.65 416.76, 636.79 417.08, 632.85 417.14 C 628.91 417.20, 627.13 416.61, 624.16 415.24 C 621.19 413.86, 619.70 412.70, 617.99 410.26 C 616.28 407.82, 615.66 406.37, 615.60 403.02 C 615.54 399.67, 616.17 397.62, 617.69 393.52 C 619.21 389.41, 620.32 387.06, 623.20 382.50 C 626.07 377.94, 628.43 374.92, 632.08 370.72 C 635.72 366.52, 638.10 364.40, 641.44 361.50 C 644.78 358.60, 646.60 357.73, 648.78 356.24 C 650.97 354.75, 651.34 354.11, 652.37 354.06 C 653.40 354.00, 653.28 354.61, 653.94 355.96 C 654.60 357.32, 654.49 358.70, 655.66 360.84 C 656.83 362.97, 657.83 364.33, 659.79 366.64 C 661.75 368.95, 663.32 370.60, 665.47 372.40 C 667.62 374.20, 668.71 374.76, 670.54 375.64 C 672.37 376.53, 673.68 376.83, 674.62 376.83 C 675.57 376.83, 675.73 376.39, 675.27 375.63 C 674.82 374.87, 673.68 374.35, 672.35 373.04 C 671.02 371.73, 670.41 370.98, 668.64 369.06 C 666.86 367.14, 665.35 365.57, 663.46 363.45 C 661.58 361.34, 660.68 360.33, 659.22 358.48 C 657.77 356.64, 657.55 355.52, 656.19 354.24 C 654.83 352.96, 654.23 352.19, 652.42 352.07 C 650.61 351.95, 649.68 352.14, 647.14 353.64 C 644.60 355.15, 643.10 356.48, 639.73 359.59 C 636.36 362.70, 634.02 364.87, 630.31 369.20 C 626.61 373.53, 624.21 376.55, 621.20 381.24 C 618.20 385.92, 616.98 388.24, 615.29 392.61 C 613.61 396.98, 612.70 399.21, 612.76 403.07 C 612.83 406.93, 613.57 408.98, 615.62 411.92 C 617.67 414.85, 619.56 416.20, 623.02 417.75 C 626.48 419.29, 628.56 419.79, 632.91 419.65 C 637.27 419.50, 640.28 419.04, 644.78 417.02 C 649.28 414.99, 651.70 413.31, 655.41 409.52 C 659.12 405.73, 660.84 403.16, 663.33 398.05 C 665.82 392.95, 666.75 389.95, 667.86 384.00 C 668.98 378.05, 669.09 374.69, 668.90 368.30 C 668.72 361.91, 668.32 358.39, 666.95 352.06 C 665.59 345.72, 664.29 342.07, 662.08 336.62 C 659.88 331.17, 658.53 328.66, 655.95 324.82 C 653.37 320.98, 652.20 319.53, 649.18 317.41 C 646.16 315.30, 644.27 314.56, 640.83 314.24 C 637.39 313.92, 635.52 314.66, 631.99 315.82 C 628.45 316.97, 626.55 318.37, 623.17 320.01 C 619.78 321.64, 617.67 322.43, 615.05 323.98 C 612.43 325.53, 611.28 326.58, 610.07 327.75 C 608.87 328.92, 608.78 329.58, 609.04 329.83 C 609.30 330.08, 609.98 329.60, 611.37 329.00 C 612.75 328.39, 613.64 327.71, 615.96 326.80 C 618.28 325.89, 620.05 325.05, 622.95 324.45 C 625.84 323.85, 627.68 323.72, 630.42 323.81 C 633.17 323.90, 634.54 324.55, 636.66 324.88 C 638.78 325.21, 640.04 325.66, 641.03 325.46 C 642.03 325.25, 642.31 324.71, 641.65 323.86" style="stroke: black; fill: black;"/><path d="M 791.55,223.72 C 791.42 224.69, 791.56 225.49, 792.26 228.00 C 792.96 230.51, 793.92 231.97, 795.07 236.27 C 796.22 240.57, 796.81 243.45, 798.01 249.52 C 799.21 255.58, 799.96 259.57, 801.07 266.60 C 802.17 273.63, 802.74 277.66, 803.53 284.64 C 804.32 291.63, 804.36 295.26, 805.02 301.53 C 805.69 307.80, 805.97 310.88, 806.86 316.01 C 807.74 321.15, 808.06 323.40, 809.46 327.20 C 810.87 331.01, 811.46 332.39, 813.87 335.05 C 816.28 337.70, 817.87 338.73, 821.50 340.49 C 825.13 342.25, 827.36 342.91, 832.04 343.84 C 836.71 344.76, 839.50 344.93, 844.86 345.10 C 850.21 345.26, 853.32 345.14, 858.81 344.67 C 864.30 344.20, 867.10 343.66, 872.30 342.75 C 877.49 341.84, 880.04 341.31, 884.81 340.11 C 889.57 338.92, 891.82 338.10, 896.12 336.77 C 900.41 335.44, 902.51 334.74, 906.27 333.46 C 910.02 332.18, 912.02 331.77, 914.89 330.38 C 917.77 329.00, 919.64 327.57, 920.65 326.53 C 921.65 325.49, 921.31 324.94, 919.92 325.17 C 918.54 325.40, 916.63 326.55, 913.72 327.69 C 910.80 328.82, 909.02 329.51, 905.35 330.86 C 901.68 332.21, 899.59 333.04, 895.37 334.45 C 891.15 335.86, 888.94 336.70, 884.25 337.93 C 879.56 339.16, 877.04 339.70, 871.92 340.61 C 866.79 341.51, 864.02 342.03, 858.63 342.46 C 853.24 342.89, 850.16 342.97, 844.95 342.74 C 839.73 342.51, 837.00 342.25, 832.55 341.32 C 828.09 340.38, 826.02 339.67, 822.67 338.06 C 819.32 336.45, 817.99 335.62, 815.78 333.28 C 813.58 330.94, 813.03 329.90, 811.65 326.37 C 810.26 322.85, 809.81 320.66, 808.84 315.65 C 807.87 310.64, 807.52 307.57, 806.80 301.33 C 806.09 295.09, 806.03 291.45, 805.25 284.45 C 804.48 277.45, 803.92 273.39, 802.92 266.32 C 801.91 259.26, 801.23 255.26, 800.22 249.12 C 799.21 242.97, 798.83 240.04, 797.88 235.60 C 796.93 231.16, 796.47 229.40, 795.48 226.91 C 794.49 224.43, 793.72 223.80, 792.93 223.16 C 792.15 222.52, 791.69 222.75, 791.55 223.72" style="stroke: black; fill: black;"/><path d="M 926.93,310.32 C 927.30 309.49, 927.43 308.29, 927.00 306.62 C 926.58 304.94, 926.39 303.62, 924.81 301.95 C 923.23 300.29, 921.90 298.72, 919.08 298.28 C 916.27 297.85, 914.29 298.30, 910.74 299.79 C 907.19 301.27, 905.08 302.80, 901.32 305.70 C 897.57 308.59, 895.20 310.53, 891.98 314.27 C 888.76 318.00, 887.18 320.41, 885.22 324.36 C 883.25 328.31, 882.52 330.59, 882.16 334.02 C 881.79 337.46, 882.09 339.21, 883.38 341.52 C 884.66 343.83, 885.99 344.74, 888.58 345.58 C 891.17 346.43, 893.09 346.45, 896.30 345.75 C 899.52 345.05, 901.39 344.10, 904.65 342.10 C 907.91 340.11, 909.62 338.47, 912.60 335.78 C 915.58 333.10, 917.38 331.33, 919.54 328.70 C 921.70 326.07, 922.59 324.48, 923.41 322.64 C 924.22 320.80, 923.62 319.73, 923.61 319.51 C 923.60 319.28, 923.17 320.08, 923.37 321.51 C 923.58 322.93, 923.65 324.28, 924.64 326.64 C 925.63 329.00, 926.50 330.85, 928.33 333.31 C 930.17 335.77, 931.85 337.21, 933.83 338.95 C 935.82 340.69, 936.76 341.07, 938.27 342.01 C 939.77 342.96, 940.14 343.37, 941.37 343.67 C 942.60 343.97, 943.08 343.96, 944.40 343.51 C 945.72 343.06, 946.51 342.83, 947.98 341.41 C 949.46 339.99, 950.22 338.63, 951.78 336.42 C 953.35 334.21, 954.20 332.65, 955.80 330.36 C 957.40 328.07, 958.39 326.65, 959.78 324.96 C 961.18 323.28, 961.55 322.32, 962.76 321.92 C 963.97 321.53, 964.43 322.02, 965.86 323.00 C 967.28 323.98, 968.24 325.10, 969.88 326.83 C 971.51 328.55, 972.36 329.72, 974.05 331.61 C 975.74 333.49, 976.59 334.73, 978.33 336.25 C 980.08 337.77, 981.08 338.62, 982.77 339.22 C 984.46 339.83, 985.18 339.86, 986.78 339.29 C 988.39 338.72, 989.44 337.80, 990.79 336.39 C 992.14 334.98, 992.45 333.83, 993.53 332.24 C 994.60 330.65, 995.13 329.60, 996.18 328.44 C 997.23 327.28, 997.63 326.74, 998.78 326.45 C 999.93 326.16, 1000.67 326.33, 1001.91 326.99 C 1003.14 327.66, 1003.54 328.28, 1004.95 329.76 C 1006.36 331.24, 1007.10 332.43, 1008.97 334.39 C 1010.84 336.36, 1011.87 337.67, 1014.30 339.58 C 1016.72 341.48, 1018.18 342.64, 1021.08 343.92 C 1023.97 345.20, 1025.45 345.60, 1028.77 345.98 C 1032.09 346.36, 1034.14 346.22, 1037.67 345.83 C 1041.21 345.43, 1042.93 345.07, 1046.45 344.00 C 1049.97 342.93, 1051.89 341.94, 1055.26 340.46 C 1058.64 338.98, 1060.74 338.11, 1063.34 336.61 C 1065.94 335.10, 1066.84 334.17, 1068.27 332.94 C 1069.69 331.71, 1069.86 330.95, 1070.47 330.46 C 1071.08 329.98, 1070.84 329.99, 1071.32 330.53 C 1071.79 331.07, 1071.65 331.84, 1072.85 333.18 C 1074.05 334.52, 1074.73 335.78, 1077.31 337.23 C 1079.89 338.67, 1081.97 339.30, 1085.75 340.41 C 1089.52 341.52, 1091.69 342.17, 1096.17 342.78 C 1100.66 343.38, 1103.53 343.55, 1108.18 343.42 C 1112.83 343.29, 1115.06 343.06, 1119.43 342.12 C 1123.81 341.18, 1126.24 340.29, 1130.03 338.74 C 1133.83 337.18, 1135.61 336.32, 1138.39 334.35 C 1141.18 332.39, 1142.64 331.00, 1143.96 328.92 C 1145.28 326.84, 1145.50 325.30, 1145.00 323.93 C 1144.50 322.56, 1143.50 321.93, 1141.47 322.06 C 1139.44 322.20, 1137.67 322.75, 1134.85 324.60 C 1132.03 326.45, 1130.21 328.23, 1127.36 331.31 C 1124.52 334.40, 1122.74 336.44, 1120.63 340.05 C 1118.53 343.66, 1117.19 345.84, 1116.84 349.36 C 1116.48 352.89, 1117.10 354.81, 1118.88 357.67 C 1120.66 360.52, 1122.34 361.70, 1125.73 363.64 C 1129.13 365.58, 1131.51 366.45, 1135.85 367.37 C 1140.19 368.29, 1142.89 368.35, 1147.46 368.24 C 1152.03 368.14, 1154.56 367.76, 1158.69 366.83 C 1162.82 365.90, 1164.92 365.34, 1168.10 363.59 C 1171.28 361.84, 1172.72 360.44, 1174.59 358.07 C 1176.45 355.70, 1176.84 354.13, 1177.42 351.74 C 1178.01 349.35, 1177.77 348.23, 1177.51 346.12 C 1177.25 344.01, 1176.96 342.70, 1176.13 341.19 C 1175.29 339.68, 1174.38 338.97, 1173.34 338.57 C 1172.30 338.16, 1171.50 338.31, 1170.92 339.15 C 1170.34 340.00, 1169.89 340.92, 1170.44 342.78 C 1170.99 344.64, 1171.50 345.98, 1173.68 348.47 C 1175.87 350.95, 1177.98 352.43, 1181.37 355.21 C 1184.75 358.00, 1187.20 359.95, 1190.60 362.39 C 1194.00 364.83, 1196.60 366.70, 1198.37 367.41 C 1200.14 368.13, 1200.63 367.46, 1199.45 365.97 C 1198.27 364.48, 1195.64 362.67, 1192.49 359.98 C 1189.34 357.29, 1186.80 355.44, 1183.72 352.54 C 1180.64 349.64, 1179.05 347.78, 1177.08 345.50 C 1175.11 343.22, 1174.79 342.37, 1173.85 341.14 C 1172.92 339.91, 1172.84 339.54, 1172.40 339.35 C 1171.96 339.17, 1171.61 339.52, 1171.65 340.22 C 1171.69 340.92, 1172.11 341.55, 1172.59 342.84 C 1173.06 344.13, 1173.70 345.05, 1174.03 346.67 C 1174.36 348.29, 1174.66 349.11, 1174.22 350.96 C 1173.78 352.81, 1173.35 353.93, 1171.82 355.92 C 1170.30 357.92, 1169.34 359.30, 1166.58 360.94 C 1163.83 362.58, 1161.90 363.20, 1158.06 364.10 C 1154.22 365.01, 1151.72 365.38, 1147.40 365.47 C 1143.08 365.56, 1140.50 365.43, 1136.46 364.55 C 1132.42 363.66, 1130.22 362.74, 1127.21 361.04 C 1124.21 359.34, 1122.90 358.31, 1121.44 356.04 C 1119.98 353.78, 1119.51 352.58, 1119.89 349.72 C 1120.28 346.85, 1121.36 344.89, 1123.38 341.71 C 1125.39 338.54, 1127.20 336.57, 1129.98 333.84 C 1132.75 331.10, 1134.79 329.86, 1137.24 328.05 C 1139.69 326.24, 1140.97 325.57, 1142.22 324.80 C 1143.47 324.03, 1143.66 323.78, 1143.48 324.20 C 1143.30 324.62, 1142.72 325.41, 1141.31 326.90 C 1139.91 328.40, 1138.93 329.83, 1136.45 331.68 C 1133.98 333.53, 1132.45 334.59, 1128.93 336.16 C 1125.42 337.73, 1123.04 338.62, 1118.87 339.54 C 1114.71 340.46, 1112.57 340.70, 1108.12 340.76 C 1103.67 340.82, 1100.87 340.59, 1096.62 339.85 C 1092.38 339.11, 1090.29 338.39, 1086.90 337.05 C 1083.51 335.70, 1081.98 334.47, 1079.67 333.11 C 1077.36 331.75, 1076.81 331.18, 1075.36 330.25 C 1073.92 329.32, 1073.60 328.82, 1072.44 328.47 C 1071.27 328.12, 1070.75 328.13, 1069.54 328.50 C 1068.34 328.87, 1068.03 329.39, 1066.41 330.33 C 1064.78 331.28, 1063.93 331.82, 1061.41 333.22 C 1058.90 334.63, 1057.03 335.83, 1053.84 337.36 C 1050.66 338.88, 1048.79 339.83, 1045.48 340.85 C 1042.18 341.87, 1040.57 342.13, 1037.32 342.45 C 1034.06 342.77, 1032.14 342.83, 1029.21 342.43 C 1026.29 342.03, 1025.14 341.69, 1022.69 340.47 C 1020.25 339.25, 1019.10 338.15, 1017.00 336.31 C 1014.91 334.47, 1014.07 333.19, 1012.22 331.28 C 1010.37 329.37, 1009.54 328.25, 1007.76 326.75 C 1005.99 325.25, 1005.27 324.50, 1003.34 323.76 C 1001.41 323.02, 1000.09 322.75, 998.11 323.07 C 996.14 323.40, 995.16 324.10, 993.46 325.39 C 991.76 326.69, 990.82 327.84, 989.62 329.54 C 988.43 331.24, 988.30 332.44, 987.49 333.89 C 986.68 335.34, 986.23 336.23, 985.56 336.78 C 984.88 337.32, 984.96 337.31, 984.11 336.62 C 983.26 335.93, 982.64 334.93, 981.31 333.33 C 979.99 331.72, 979.16 330.54, 977.49 328.59 C 975.82 326.64, 974.96 325.33, 972.96 323.59 C 970.96 321.84, 969.65 320.77, 967.47 319.88 C 965.29 318.99, 964.16 318.70, 962.06 319.14 C 959.96 319.58, 959.00 320.44, 956.98 322.10 C 954.96 323.75, 953.85 325.13, 951.95 327.41 C 950.04 329.69, 948.92 331.23, 947.46 333.50 C 945.99 335.76, 945.49 337.20, 944.62 338.74 C 943.75 340.28, 943.60 340.64, 943.11 341.20 C 942.61 341.77, 942.68 341.91, 942.13 341.57 C 941.59 341.22, 941.40 340.63, 940.38 339.48 C 939.35 338.32, 938.60 337.61, 937.02 335.77 C 935.45 333.94, 934.11 332.57, 932.51 330.29 C 930.91 328.00, 930.31 326.39, 929.01 324.35 C 927.71 322.32, 927.16 321.29, 926.01 320.12 C 924.85 318.96, 924.30 318.36, 923.25 318.53 C 922.19 318.70, 922.03 319.40, 920.72 320.97 C 919.41 322.53, 918.78 323.87, 916.71 326.34 C 914.63 328.81, 913.11 330.75, 910.34 333.31 C 907.57 335.86, 905.84 337.36, 902.86 339.12 C 899.88 340.88, 898.14 341.41, 895.45 342.10 C 892.76 342.78, 891.33 342.93, 889.40 342.55 C 887.48 342.17, 886.66 341.84, 885.82 340.21 C 884.98 338.57, 884.82 337.31, 885.19 334.38 C 885.56 331.45, 885.91 329.23, 887.68 325.56 C 889.45 321.89, 890.94 319.54, 894.02 316.04 C 897.10 312.54, 899.48 310.65, 903.08 308.04 C 906.68 305.44, 908.96 304.19, 912.04 303.00 C 915.12 301.81, 916.51 301.76, 918.48 302.09 C 920.44 302.42, 920.86 303.48, 921.87 304.65 C 922.87 305.82, 922.86 306.71, 923.52 307.93 C 924.18 309.14, 924.49 310.27, 925.17 310.74 C 925.85 311.22, 926.57 311.14, 926.93 310.32" style="stroke: black; fill: black;"/></g></svg>